<?xml version="1.0" encoding="UTF-8"?>
<svg width="800" height="600" viewBox="0 0 800 600" xmlns="http://www.w3.org/2000/svg">
  <defs>
    <style>
      .region { cursor: pointer; transition: opacity 0.2s; }
      .region:hover { opacity: 0.8; }
    </style>
  </defs>
  
  <!-- Base horse silhouette -->
  <path d="M 350,150 C 360,140 375,135 390,140 C 405,145 415,155 410,170 L 405,185 C 400,195 390,200 380,202 C 370,204 360,200 355,195 L 350,180 C 345,170 340,160 350,150 Z M 355,195 C 370,200 380,220 385,245 C 390,270 388,295 380,315 C 372,335 360,345 345,350 C 330,355 315,350 305,335 C 295,320 290,300 295,275 C 300,250 315,220 355,195 Z M 345,350 C 360,355 370,375 375,400 C 380,425 378,450 370,470 C 362,490 350,500 335,505 C 320,510 305,505 295,490 C 285,475 280,455 285,430 C 290,405 305,375 345,350 Z M 335,505 L 345,600 C 347,615 343,625 335,635 C 327,645 315,648 305,645 L 295,600 L 305,505 C 315,500 325,500 335,505 Z M 370,470 C 390,480 405,500 415,530 C 425,560 428,590 425,620 C 422,650 412,670 395,680 C 378,690 365,685 355,675 C 345,665 338,650 335,635 C 332,620 330,600 335,580 C 340,560 355,530 370,470 Z M 425,620 C 465,630 505,640 535,660 C 565,680 580,710 575,740 C 570,770 555,790 525,800 C 495,810 465,815 435,810 C 405,805 380,795 355,780 C 330,765 315,745 310,720 C 305,695 310,670 335,635 Z M 380,315 C 420,325 460,335 490,355 C 520,375 535,405 530,435 C 525,465 510,485 480,495 C 450,505 420,510 390,505 C 360,500 340,490 370,470 Z M 575,740 C 595,750 610,770 615,800 C 620,830 618,860 608,890 C 598,920 583,940 563,950 C 543,960 523,965 503,960 C 483,955 468,945 463,930 C 458,915 453,900 458,885 C 463,870 473,855 488,840 C 503,825 520,810 525,800 Z M 503,960 L 513,1058 C 515,1074 511,1088 503,1098 C 495,1108 483,1113 473,1108 L 463,1058 L 473,960 C 483,955 493,955 503,960 Z M 380,315 C 400,305 420,300 440,305 C 460,310 476,322 490,355 C 470,365 450,370 430,365 C 410,360 394,348 380,315 Z" 
        fill="#f0f0f0" stroke="#000" stroke-width="2"/>
  
  <!-- Clickable regions -->
  <g id="regions">
    <path class="region" id="head" 
          d="M 350,150 C 360,140 375,135 390,140 C 405,145 415,155 410,170 L 405,185 C 400,195 390,200 380,202 C 370,204 360,200 355,195 L 350,180 C 345,170 340,160 350,150 Z" 
          fill="transparent"/>
    
    <path class="region" id="neck" 
          d="M 355,195 C 370,200 380,220 385,245 C 390,270 388,295 380,315 C 372,335 360,345 345,350 C 330,355 315,350 305,335 C 295,320 290,300 295,275 C 300,250 315,220 355,195 Z" 
          fill="transparent"/>
    
    <path class="region" id="shoulder" 
          d="M 345,350 C 360,355 370,375 375,400 C 380,425 378,450 370,470 C 362,490 350,500 335,505 C 320,510 305,505 295,490 C 285,475 280,455 285,430 C 290,405 305,375 345,350 Z" 
          fill="transparent"/>
    
    <path class="region" id="frontLeg" 
          d="M 335,505 L 345,600 C 347,615 343,625 335,635 C 327,645 315,648 305,645 L 295,600 L 305,505 C 315,500 325,500 335,505 Z" 
          fill="transparent"/>
    
    <path class="region" id="chest" 
          d="M 370,470 C 390,480 405,500 415,530 C 425,560 428,590 425,620 C 422,650 412,670 395,680 C 378,690 365,685 355,675 C 345,665 338,650 335,635 C 332,620 330,600 335,580 C 340,560 355,530 370,470 Z" 
          fill="transparent"/>
    
    <path class="region" id="barrel" 
          d="M 425,620 C 465,630 505,640 535,660 C 565,680 580,710 575,740 C 570,770 555,790 525,800 C 495,810 465,815 435,810 C 405,805 380,795 355,780 C 330,765 315,745 310,720 C 305,695 310,670 335,635 Z" 
          fill="transparent"/>
    
    <path class="region" id="back" 
          d="M 380,315 C 420,325 460,335 490,355 C 520,375 535,405 530,435 C 525,465 510,485 480,495 C 450,505 420,510 390,505 C 360,500 340,490 370,470 Z" 
          fill="transparent"/>
    
    <path class="region" id="hindquarter" 
          d="M 575,740 C 595,750 610,770 615,800 C 620,830 618,860 608,890 C 598,920 583,940 563,950 C 543,960 523,965 503,960 C 483,955 468,945 463,930 C 458,915 453,900 458,885 C 463,870 473,855 488,840 C 503,825 520,810 525,800 Z" 
          fill="transparent"/>
    
    <path class="region" id="hindLeg" 
          d="M 503,960 L 513,1058 C 515,1074 511,1088 503,1098 C 495,1108 483,1113 473,1108 L 463,1058 L 473,960 C 483,955 493,955 503,960 Z" 
          fill="transparent"/>
    
    <path class="region" id="withers" 
          d="M 380,315 C 400,305 420,300 440,305 C 460,310 476,322 490,355 C 470,365 450,370 430,365 C 410,360 394,348 380,315 Z" 
          fill="transparent"/>
  </g>
</svg> 